# xmcd CD database file
#
# Track frame offsets:
#	150
#	15028
#	30869
#	51413
#	74419
#	85010
#	102650
#	121558
#	136786
#	153615
#	171964
#
# Disc length: 2581 seconds
#
# Revision: 0
# Processed by: cddbd v1.5.1PL2 Copyright (c) Steve Scherf et al.
# Submitted via: CDex 1.51
#
DISCID=7f0a130b
DTITLE=ROM=PARI - View
DYEAR=1999
DGENRE=Electronica
TTITLE0=Thanks For The Party
TTITLE1=6000000000 Damaged People [Minus Myself]
TTITLE2=Lisp
TTITLE3=Albert Fish
TTITLE4=Jim and Betty
TTITLE5=Here They Scum!
TTITLE6=Fuzz Factory
TTITLE7=As Sick As Possible
TTITLE8=Transmutation
TTITLE9=Hip-Hop still need MC and CM
TTITLE10=The Most Beautiful Ending
EXTD=YEAR: 1999
EXTT0=
EXTT1=
EXTT2=
EXTT3=
EXTT4=
EXTT5=
EXTT6=
EXTT7=
EXTT8=
EXTT9=
EXTT10=
PLAYORDER=
